<svg width="16" height="16" viewBox="0 0 16 16" fill="none" xmlns="http://www.w3.org/2000/svg">
<g clip-path="url(#clip0_560_8424)">
<path d="M9.68661 6.31328L6.31328 9.68661C5.87995 9.25328 5.61328 8.65995 5.61328 7.99995C5.61328 6.67995 6.67995 5.61328 7.99995 5.61328C8.65995 5.61328 9.25328 5.87995 9.68661 6.31328Z" stroke="#171717" stroke-linecap="round" stroke-linejoin="round"/>
<path d="M11.8799 3.84657C10.7132 2.96657 9.3799 2.48657 7.9999 2.48657C5.64656 2.48657 3.45323 3.87324 1.92656 6.27324C1.32656 7.21324 1.32656 8.79324 1.92656 9.73324C2.45323 10.5599 3.06656 11.2732 3.73323 11.8466" stroke="#171717" stroke-linecap="round" stroke-linejoin="round"/>
<path d="M5.61328 13.02C6.37328 13.34 7.17995 13.5133 7.99995 13.5133C10.3533 13.5133 12.5466 12.1266 14.0733 9.72662C14.6733 8.78662 14.6733 7.20662 14.0733 6.26662C13.8533 5.91995 13.6133 5.59329 13.3666 5.28662" stroke="#171717" stroke-linecap="round" stroke-linejoin="round"/>
<path d="M10.3409 8.46655C10.1676 9.40655 9.40094 10.1732 8.46094 10.3466" stroke="#171717" stroke-linecap="round" stroke-linejoin="round"/>
<path d="M6.31398 9.68677L1.33398 14.6668" stroke="#171717" stroke-linecap="round" stroke-linejoin="round"/>
<path d="M14.6675 1.33325L9.6875 6.31325" stroke="#171717" stroke-linecap="round" stroke-linejoin="round"/>
</g>
<defs>
<clipPath id="clip0_560_8424">
<rect width="16" height="16" fill="white"/>
</clipPath>
</defs>
</svg>
