<svg width="50" height="51" viewBox="0 0 50 51" fill="none" xmlns="http://www.w3.org/2000/svg">
<rect y="0.5" width="50" height="50" rx="5" fill="#9C7DCD"/>
<path d="M35 25.5V33C35 35.7625 32.7625 38 30 38H20C17.2375 38 15 35.7625 15 33V25.5C15 24.8125 15.5625 24.25 16.25 24.25H18.7125C19.4 24.25 19.9625 24.8125 19.9625 25.5V29.425C19.9625 30.35 20.475 31.2 21.2875 31.6375C21.65 31.8375 22.05 31.9375 22.4625 31.9375C22.9375 31.9375 23.4125 31.8 23.825 31.525L25.0125 30.75L26.1125 31.4875C26.875 32 27.85 32.0625 28.6625 31.625C29.4875 31.1875 30 30.35 30 29.4125V25.5C30 24.8125 30.5625 24.25 31.25 24.25H33.75C34.4375 24.25 35 24.8125 35 25.5Z" fill="#E6DFF1"/>
<path d="M36.875 19.25V20.5C36.875 21.875 36.2125 23 34.375 23H15.625C13.7125 23 13.125 21.875 13.125 20.5V19.25C13.125 17.875 13.7125 16.75 15.625 16.75H34.375C36.2125 16.75 36.875 17.875 36.875 19.25Z" fill="#E6DFF1"/>
<path d="M24.5495 16.7498H17.6495C17.2245 16.2873 17.237 15.5748 17.687 15.1248L19.462 13.3498C19.9245 12.8873 20.687 12.8873 21.1495 13.3498L24.5495 16.7498Z" fill="#E6DFF1"/>
<path d="M32.3375 16.7498H25.4375L28.8375 13.3498C29.3 12.8873 30.0625 12.8873 30.525 13.3498L32.3 15.1248C32.75 15.5748 32.7625 16.2873 32.3375 16.7498Z" fill="#E6DFF1"/>
<path d="M27.4633 24.25C28.1508 24.25 28.7133 24.8125 28.7133 25.5V29.4125C28.7133 30.4125 27.6008 31.0125 26.7758 30.45L25.6508 29.7C25.2383 29.425 24.7008 29.425 24.2758 29.7L23.1008 30.475C22.2758 31.025 21.1758 30.425 21.1758 29.4375V25.5C21.1758 24.8125 21.7383 24.25 22.4258 24.25H27.4633Z" fill="#E6DFF1"/>
</svg>
