<svg width="50" height="51" viewBox="0 0 50 51" fill="none" xmlns="http://www.w3.org/2000/svg">
<rect y="0.5" width="50" height="50" rx="5" fill="#9C7DCD"/>
<path d="M24.3995 17.6118L25 18.4145L25.6005 17.6118C26.7281 16.1046 28.5349 15.125 30.55 15.125C33.9698 15.125 36.75 17.9107 36.75 21.3625C36.75 22.7684 36.5258 24.0656 36.1364 25.2691L36.1349 25.274C35.2011 28.2291 33.2859 30.6151 31.2127 32.3968C29.1363 34.1814 26.9444 35.3224 25.5334 35.8025L25.5334 35.8024L25.5254 35.8053C25.4181 35.8431 25.2276 35.875 25 35.875C24.7724 35.875 24.5819 35.8431 24.4746 35.8053L24.4746 35.8052L24.4666 35.8025C23.0556 35.3224 20.8637 34.1814 18.7873 32.3968C16.7141 30.6151 14.7989 28.2291 13.8651 25.274L13.8652 25.274L13.8636 25.2691C13.4742 24.0656 13.25 22.7684 13.25 21.3625C13.25 17.9107 16.0302 15.125 19.45 15.125C21.4651 15.125 23.2719 16.1046 24.3995 17.6118Z" fill="#E6DFF1" stroke="#E6DFF1" stroke-width="1.5"/>
</svg>
