<svg width="50" height="51" viewBox="0 0 50 51" fill="none" xmlns="http://www.w3.org/2000/svg">
<rect y="0.5" width="50" height="50" rx="5" fill="#9C7DCD"/>
<path d="M27.1631 14.8873L29.3631 19.2873C29.6631 19.8998 30.4631 20.4873 31.1381 20.5998L35.1256 21.2623C37.6756 21.6873 38.2756 23.5373 36.4381 25.3623L33.3381 28.4623C32.8131 28.9873 32.5256 29.9998 32.6881 30.7248L33.5756 34.5623C34.2756 37.5998 32.6631 38.7748 29.9756 37.1873L26.2381 34.9748C25.5631 34.5748 24.4506 34.5748 23.7631 34.9748L20.0256 37.1873C17.3506 38.7748 15.7256 37.5873 16.4256 34.5623L17.3131 30.7248C17.4756 29.9998 17.1881 28.9873 16.6631 28.4623L13.5631 25.3623C11.7381 23.5373 12.3256 21.6873 14.8756 21.2623L18.8631 20.5998C19.5256 20.4873 20.3256 19.8998 20.6256 19.2873L22.8256 14.8873C24.0256 12.4998 25.9756 12.4998 27.1631 14.8873Z" fill="#E6DFF1" stroke="#E6DFF1" stroke-width="1.5" stroke-linecap="round" stroke-linejoin="round"/>
</svg>
