<svg width="42" height="42" viewBox="0 0 42 42" fill="none" xmlns="http://www.w3.org/2000/svg">
<g clip-path="url(#clip0_2005_2108)">
<path d="M12.2259 7.14262C12.2136 7.09311 12.4983 6.90744 12.8572 6.72176L13.5133 6.41231L14.1569 7.60062C14.5159 8.25667 15.6052 10.3238 16.5831 12.193C17.561 14.0621 18.7122 16.2902 19.1578 17.1443C19.8881 18.5554 19.95 18.7411 19.9128 19.3228C19.8757 19.7437 19.7643 20.0779 19.5415 20.375C19.3682 20.6102 19.0216 20.8949 18.774 21.0063C18.3532 21.2167 17.7343 21.2291 4.57617 21.2291V19.7437H11.2852C17.4743 19.7437 18.019 19.7189 18.2294 19.5209C18.3532 19.4095 18.4522 19.2609 18.4398 19.1867C18.4398 19.1124 18.3037 18.8153 18.1428 18.5059C17.9818 18.1964 17.103 16.5006 16.1746 14.7305C15.2586 12.9604 13.996 10.5466 13.3771 9.37071C12.7582 8.20715 12.2383 7.19214 12.2259 7.14262Z" fill="white"/>
<path d="M25.4335 12.4281C26.2258 10.9056 27.2779 8.91272 27.7607 7.99672L28.6271 6.36279L29.2584 6.72176C29.605 6.91982 29.8773 7.13025 29.865 7.19214C29.8526 7.25403 29.048 8.82607 28.0577 10.6952L27.9287 10.9435C26.9673 12.7933 25.7398 15.155 25.1241 16.3273C24.4928 17.5527 23.9234 18.6173 23.8615 18.6792C23.812 18.7534 23.7625 18.9639 23.7625 19.1495C23.7625 19.36 23.8491 19.5333 24.01 19.6075C24.171 19.6942 26.7333 19.7313 37.6261 19.7313V21.2167H30.6943C24.9879 21.2167 23.7006 21.192 23.4283 21.0434C23.2302 20.9568 22.9579 20.7463 22.8094 20.5854C22.6608 20.4245 22.4504 20.0779 22.3514 19.8303C22.24 19.5704 22.1533 19.2238 22.1533 19.0505C22.1533 18.8896 22.5618 17.9489 23.0693 16.9833C23.5644 16.0055 24.629 13.963 25.4335 12.4281Z" fill="white"/>
<path d="M19.8633 22.9002C20.0738 22.7516 20.4327 22.6031 20.6679 22.5659C20.9155 22.5164 21.2497 22.5041 21.4106 22.5412C21.5839 22.5783 21.8686 22.6773 22.0295 22.764C22.2028 22.8506 22.4628 23.0487 22.5989 23.2096C22.7475 23.3705 23.255 24.138 23.7377 24.9178C24.2205 25.71 25.0374 27.0716 25.5697 27.9505C26.0896 28.8417 27.2408 30.7356 28.1073 32.1591C28.9861 33.595 29.7041 34.8081 29.7041 34.8576C29.7041 34.9071 29.4317 35.1175 28.4662 35.6869L28.231 35.2908C28.0949 35.068 26.5105 32.4686 24.728 29.4978C21.98 24.955 21.423 24.1132 21.163 24.0761C20.9898 24.0637 20.7793 24.138 20.6555 24.2618C20.5441 24.3856 18.9845 26.9107 17.202 29.8691C15.4195 32.8399 13.897 35.3527 13.8227 35.4641C13.6866 35.6498 13.6247 35.6374 12.3745 34.8823L12.7211 34.3253C12.9191 34.0282 14.5159 31.3793 16.286 28.4704C18.4522 24.8931 19.6158 23.0735 19.8633 22.9002Z" fill="white"/>
</g>
<defs>
<clipPath id="clip0_2005_2108">
<rect width="41.6938" height="41.6938" fill="white"/>
</clipPath>
</defs>
</svg>
