<svg width="23" height="22" viewBox="0 0 23 22" fill="none" xmlns="http://www.w3.org/2000/svg">
<path d="M11.0235 1.18C11.1711 0.715152 11.8289 0.715152 11.9765 1.18L14.1511 8.02625C14.2174 8.23502 14.4119 8.37632 14.6309 8.37487L21.8141 8.32738C22.3018 8.32416 22.5051 8.94974 22.1086 9.23381L16.2694 13.4175C16.0913 13.5451 16.017 13.7737 16.0861 13.9816L18.351 20.7985C18.5048 21.2614 17.9726 21.648 17.5799 21.3587L11.7966 17.0982C11.6202 16.9682 11.3798 16.9682 11.2034 17.0982L5.42008 21.3587C5.02739 21.648 4.49524 21.2614 4.64902 20.7985L6.9139 13.9816C6.98296 13.7737 6.90868 13.5451 6.73061 13.4175L0.89142 9.23381C0.494945 8.94974 0.698211 8.32416 1.18594 8.32738L8.36907 8.37487C8.58812 8.37632 8.7826 8.23502 8.84892 8.02625L11.0235 1.18Z" fill="#1C1C1C"/>
</svg>
